# xmcd CD database file
#
# Track frame offsets:
#	150
#	25248
#	44170
#	64092
#	81335
#	97234
#	112977
#	132401
#	155798
#	173535
#	185908
#	200191
#	217828
#	236472
#
# Disc length: 3428 seconds
#
# Revision: 0
# Processed by: cddbd v1.5.2PL0 Copyright (c) Steve Scherf et al.
# Submitted via: CDex 1.51
#
DISCID=d10d620e
DTITLE=JJ Cale and Eric Clapton - The Road To Escondido
DYEAR=2006
DGENRE=Blues
TTITLE0=Danger
TTITLE1=Heads In Georgia
TTITLE2=Missing Person
TTITLE3=When The War Is Over
TTITLE4=Sporting Life Blues
TTITLE5=Dead End Road
TTITLE6=It's Easy
TTITLE7=Hard To Thrill
TTITLE8=Anyway The Wind Blows
TTITLE9=Three Little Girls
TTITLE10=Don't Cry Sister
TTITLE11=Last Will and Testament
TTITLE12=Who Am I Telling You
TTITLE13=Ride The River
EXTD=YEAR: 2006
EXTT0=
EXTT1=
EXTT2=
EXTT3=
EXTT4=
EXTT5=
EXTT6=
EXTT7=
EXTT8=
EXTT9=
EXTT10=
EXTT11=
EXTT12=
EXTT13=
PLAYORDER=
